<svg width="131" height="40" viewBox="0 0 131 40" fill="none" xmlns="http://www.w3.org/2000/svg">
<path d="M81.271 30.8654C73.6573 36.4778 62.6282 39.4798 53.122 39.4798C39.8088 39.4798 27.8009 34.5418 18.7296 26.3624C18.0118 25.7098 18.6644 24.8397 19.5128 25.34C29.3019 31.0394 41.4186 34.4547 53.9268 34.4547C62.3672 34.4547 71.6342 32.7145 80.1616 29.0816C81.4668 28.5378 82.5327 29.93 81.271 30.8654Z" fill="#FF9900"/>
<path d="M84.4481 27.255C83.4692 26.0151 78.009 26.6677 75.5727 26.9505C74.833 27.0375 74.7025 26.3849 75.3769 25.9281C79.7276 22.8608 86.8627 23.7527 87.7111 24.7751C88.5378 25.7976 87.4936 32.9545 83.4039 36.3915C82.7731 36.9136 82.1857 36.6308 82.4468 35.9347C83.3604 33.6506 85.427 28.495 84.4481 27.255Z" fill="#FF9900"/>
<path d="M75.7223 4.30801V1.32778C75.7223 0.870955 76.0704 0.566406 76.4837 0.566406H89.8186C90.2537 0.566406 90.58 0.870955 90.58 1.32778V3.87294C90.58 4.30801 90.2101 4.85185 89.5793 5.74374L82.6617 15.6198C85.2286 15.5546 87.9478 15.9461 90.2537 17.2514C90.7757 17.5559 90.928 17.991 90.9715 18.4043V21.5803C90.9715 22.0154 90.4929 22.5157 89.9926 22.2547C85.903 20.1011 80.4428 19.8618 75.9181 22.2764C75.4613 22.5375 74.9609 22.0154 74.9609 21.6021V18.5783C74.9609 18.0997 74.9609 17.2731 75.4613 16.5335L83.4666 5.06938H76.5054C76.0704 5.06938 75.7223 4.76483 75.7223 4.30801Z" fill="#221F1F"/>
<path d="M27.1 22.8859H23.0538C22.6622 22.8642 22.3577 22.5596 22.3359 22.1898V1.39344C22.3359 0.980123 22.684 0.65382 23.1191 0.65382H26.9042C27.2957 0.675574 27.622 0.980123 27.6438 1.34993V4.06912H27.7091C28.688 1.43695 30.5588 0.21875 33.0387 0.21875C35.5838 0.21875 37.1718 1.43695 38.303 4.06912C39.2819 1.43695 41.5225 0.21875 43.8937 0.21875C45.5904 0.21875 47.4612 0.914862 48.5924 2.50287C49.8759 4.24315 49.6148 6.78831 49.6148 9.02892V22.168C49.6148 22.5814 49.2668 22.9294 48.8317 22.9294H44.7856C44.3722 22.9077 44.0459 22.5814 44.0459 22.168V11.0955C44.0459 10.2254 44.133 8.02826 43.9372 7.20163C43.6326 5.8094 42.719 5.41784 41.5443 5.41784C40.5654 5.41784 39.543 6.07045 39.1297 7.11461C38.7163 8.15878 38.7598 9.92082 38.7598 11.0955V22.1245C38.7598 22.5379 38.4118 22.8859 37.9767 22.8859H33.9306C33.5172 22.8642 33.1909 22.5379 33.1909 22.1245V11.0955C33.1909 8.76788 33.5825 5.35258 30.6893 5.35258C27.7743 5.35258 27.8831 8.68087 27.8831 11.0955V22.1245C27.8831 22.5596 27.535 22.8859 27.1 22.8859Z" fill="#221F1F"/>
<path d="M102.068 0.195312C108.094 0.195312 111.335 5.37265 111.335 11.9422C111.335 18.2942 107.746 23.3193 102.068 23.3193C96.151 23.3193 92.9532 18.142 92.9532 11.7029C92.9315 5.24213 96.1945 0.195312 102.068 0.195312ZM102.09 4.43725C99.1095 4.43725 98.9137 8.50515 98.9137 11.0503C98.9137 13.5955 98.8702 19.0339 102.046 19.0339C105.179 19.0339 105.331 14.6614 105.331 11.9857C105.331 10.2237 105.266 8.13535 104.722 6.46033C104.287 5.00284 103.373 4.43725 102.09 4.43725Z" fill="#221F1F"/>
<path d="M119.122 22.8842H115.076C114.662 22.8625 114.336 22.5362 114.336 22.1229V1.30474C114.379 0.913178 114.706 0.630383 115.119 0.630383H118.882C119.23 0.652136 119.535 0.891425 119.6 1.21773V4.39374H119.666C120.797 1.54403 122.385 0.195312 125.191 0.195312C127.018 0.195312 128.78 0.847918 129.933 2.65346C130.999 4.32848 130.999 7.11293 130.999 9.13601V22.2316C130.956 22.6014 130.608 22.8842 130.216 22.8842H126.17C125.8 22.8625 125.495 22.5797 125.452 22.2316V10.9198C125.452 8.63568 125.713 5.30739 122.907 5.30739C121.928 5.30739 121.014 5.95999 120.557 6.98241C119.992 8.24411 119.905 9.52757 119.905 10.9198V22.1229C119.927 22.5579 119.557 22.8842 119.122 22.8842Z" fill="#221F1F"/>
<path d="M65.1067 12.9433V12.0732C62.17 12.0732 59.081 12.7041 59.081 16.1629C59.081 17.9031 59.9947 19.0996 61.5392 19.0996C62.6703 19.0996 63.6928 18.4035 64.3454 17.2505C65.1502 15.8366 65.1067 14.5313 65.1067 12.9433ZM69.1964 22.8194C68.9354 23.0587 68.5438 23.0805 68.2393 22.9065C66.8905 21.797 66.6512 21.2749 65.9116 20.209C63.6928 22.4714 62.1048 23.1675 59.2333 23.1675C55.818 23.1675 53.1641 21.0574 53.1641 16.859C53.1641 13.5742 54.9478 11.3336 57.493 10.2242C59.6901 9.24524 62.7791 9.09297 65.1285 8.81017V8.28809C65.1285 7.33093 65.1938 6.178 64.6282 5.35136C64.1278 4.61175 63.1924 4.28544 62.344 4.28544C60.7995 4.28544 59.4291 5.06857 59.081 6.72184C59.0158 7.09165 58.7547 7.4397 58.3849 7.46146L54.4475 7.04814C54.1212 6.98288 53.7514 6.70008 53.8384 6.19975C54.7521 1.43573 59.0375 0 62.9096 0C64.8892 0 67.4561 0.522084 69.0224 2.02308C71.0019 3.87213 70.8062 6.33027 70.8062 9.00596V15.3145C70.8062 17.207 71.5893 18.0554 72.3289 19.0778C72.59 19.4476 72.6552 19.8827 72.3072 20.1655C71.4805 20.8399 70.023 22.1233 69.1964 22.8194Z" fill="#221F1F"/>
<path d="M11.9427 12.9433V12.0732C9.00596 12.0732 5.91696 12.7041 5.91696 16.1629C5.91696 17.9031 6.8306 19.0996 8.3751 19.0996C9.50629 19.0996 10.5287 18.4035 11.1813 17.2505C11.9862 15.8366 11.9427 14.5313 11.9427 12.9433ZM16.0323 22.8194C15.7713 23.0587 15.3797 23.0805 15.0752 22.9065C13.7265 21.797 13.4872 21.2749 12.7476 20.209C10.5287 22.4714 8.94069 23.1675 6.06923 23.1675C2.65393 23.1675 0 21.0574 0 16.859C0 13.5524 1.78379 11.3118 4.32895 10.2242C6.52605 9.24524 9.61505 9.09297 11.9644 8.81017V8.28809C11.9644 7.33093 12.0297 6.178 11.4641 5.35136C10.9638 4.61175 10.0284 4.28544 9.17998 4.28544C7.63548 4.28544 6.26501 5.06857 5.91696 6.72184C5.8517 7.09165 5.59065 7.4397 5.22084 7.46146L1.28346 7.04814C0.957155 6.98288 0.587345 6.70008 0.674359 6.19975C1.58801 1.43573 5.8952 0 9.74557 0C11.7251 0 14.2921 0.522084 15.8583 2.02308C17.8379 3.87213 17.6421 6.33027 17.6421 9.00596V15.3145C17.6421 17.207 18.4252 18.0554 19.1648 19.0778C19.4259 19.4476 19.4912 19.8827 19.1431 20.1655C18.3382 20.8399 16.859 22.1233 16.0323 22.8194Z" fill="#221F1F"/>
</svg>
